{"title":"ItÃ‚Â´s.Complicated.2009.SWESUB.DVDRip.XviD.AC3.(5.1).-Zen_Bud","uid":5648078,"size":1470662594,"categoryP":"video","categoryS":"movies","magnet":"?xt=urn:btih:be5f77e853dda74d78a933932ad0546811d149dd&amp;dn=It%C3%82%C2%B4s.Complicated.2009.SWESUB.DVDRip.XviD.AC3.%285.1%29.-Zen_Bud&amp;tr=udp%3A%2F%2Ftracker.openbittorrent.com%3A80&amp;tr=udp%3A%2F%2Fopen.demonii.com%3A1337&amp;tr=udp%3A%2F%2Ftracker.coppersurfer.tk%3A6969&amp;tr=udp%3A%2F%2Fexodus.desync.com%3A6969","seeders":0,"leechers":0,"uploader":"Zen_Bud","files":-1,"time":1277483871,"description":"General\nComplete name                    : ItÃ‚Â´s Complicated.avi\nFormat                           : AVI\n\nFile size                        : 1.37 GiB\nDuration                         : 1h 55mn\nOverall bit rate                 : 1 702 Kbps\n\nVideo\n\nFormat                           : MPEG-4 Visual\nCodec ID/Hint                    : XviD\nDuration                         : 1h 55mn\nBit rate                         : 1 307 Kbps\nWidth                            : 720 pixels\nHeight                           : 552 pixels\nDisplay aspect ratio             : 1.855\nBits/(Pixel*Frame)               : 0.132\nStream size                      : 1.05 GiB (77%)\nWriting library                  : XviD 1.1.2 (UTC 2006-11-01)\n\nAudio\n\nFormat                           : AC-3\nBit rate                         : 384 Kbps\nChannel(s)                       : 6 channels\nChannel positions                : Front: L C R, Side: L R, LFE\nSampling rate                    : 48.0 KHz\nStream size                      : 317 MiB (23%)\n\n\n","torrent":{"xt":"urn:btih:be5f77e853dda74d78a933932ad0546811d149dd","amp;dn":"It%C3%82%C2%B4s.Complicated.2009.SWESUB.DVDRip.XviD.AC3.%285.1%29.-Zen_Bud","amp;tr":["udp%3A%2F%2Ftracker.openbittorrent.com%3A80","udp%3A%2F%2Fopen.demonii.com%3A1337","udp%3A%2F%2Ftracker.coppersurfer.tk%3A6969","udp%3A%2F%2Fexodus.desync.com%3A6969"],"infoHash":"be5f77e853dda74d78a933932ad0546811d149dd","infoHashBuffer":{"type":"Buffer","data":[190,95,119,232,83,221,167,77,120,169,51,147,42,208,84,104,17,209,73,221]},"announce":[],"urlList":[]}}